<svg width="30" height="30" viewBox="0 0 36 36" xmlns="http://www.w3.org/2000/svg" fill-rule="evenodd" clip-rule="evenodd" stroke-linejoin="round" stroke-miterlimit="2"><circle cx="20.5" cy="93.3" r="47.7" fill="#08f" transform="matrix(.37749 0 0 .37744 10.2 -17.2)"/><path d="M8.4 7.8l-.1 6.4c.8-1.2 1.8-1.8 3-1.8 1.4 0 2.6.8 3.4 2.5.9 1.7 1.3 4 1.3 6.8s-.4 5-1.3 6.7C13.7 30 12.6 31 11 31c-1.1 0-2-.7-2.8-2v.6c0 1-.3 1.4-1 1.4-.6 0-1-.5-1-1.4v-1l.1-1V10.4L6.1 9c-.1-.2-.3-.3-.5-.3h-.2c-.5 0-.7-.3-.7-1 0-1 .3-1.3.8-1.3h.6l.6.2.7-.1.4-.1c.3 0 .5.2.5.8v.6zm2.7 7c-1.9 0-2.8 2.3-2.8 6.7 0 4.7 1 7 2.7 7 1 0 1.6-.6 2.2-1.9.5-1.2.8-2.9.8-4.9 0-2-.3-3.7-.8-5-.5-1.2-1.2-1.9-2.1-1.9zM19.8 17.2l1.6 10.2 1.8-12.8c.2-1.3.6-2 1.4-2 .5 0 .8.2 1 .4.2.3.4.8.5 1.6l2 12.8 1.4-10 .2-1.6c0-.5-.2-.8-.6-.8H29h-.4c-.5 0-.8-.3-.8-1.1 0-.9.3-1.3.8-1.3l1.2.2 1.1.2c.3 0 .6 0 1.1-.2l1-.2c.6 0 .9.4.9 1.2 0 .8-.4 1.2-1 1.2-.5 0-.7.2-1 .7l-.6 3L29.7 29c-.2 1.3-.8 2-1.6 2s-1.3-.8-1.5-2.3l-2-11.5L22.8 29c-.2 1.3-.7 2-1.5 2-.7 0-1.2-.7-1.4-2l-2.4-12.2-.3-1.2c-.1-.4-.4-.6-.7-.6H16c-.2 0-.4 0-.5-.4-.2-.2-.3-.5-.3-.8 0-.8.4-1.2 1-1.2l1 .2 1 .2 1.2-.2 1.2-.2c.6 0 .8.4.8 1.2 0 .8-.2 1.2-.8 1.2h-.4c-.4 0-.6.3-.6.8l.2 1.4z" fill="#fff" fill-rule="nonzero"/></svg>